# This file uses centimeters as units for non-parametric coordinates.

mtllib ventilation_LP_UV_triang.mtl
g default
v 5.919390 0.969850 4.848431
v 6.157412 1.127030 4.645650
v 5.919390 3.963736 4.848431
v 6.157412 3.806556 4.645650
v 5.919390 0.969850 0.000000
v 6.157412 1.127030 0.000000
v 6.157412 3.806556 -0.000000
v 5.919390 3.963736 -0.000000
v 5.919390 0.969850 -4.848431
v 6.157412 1.127030 -4.645650
v 5.919390 3.963736 -4.848431
v 6.157412 3.806556 -4.645650
vt 0.615146 0.297046
vt 0.010000 0.297046
vt 0.041771 0.233843
vt 0.583376 0.233843
vt 0.010000 0.366342
vt 0.050988 0.308688
vt 0.990000 0.308688
vt 0.990000 0.366342
vt 0.010000 0.435637
vt 0.010000 0.377983
vt 0.949013 0.377983
vt 0.990000 0.435637
vt 0.949012 0.448395
vt 0.949012 0.990000
vt 0.010000 0.990000
vt 0.010000 0.448395
vt 0.615146 0.297046
vt 0.010000 0.297046
vt 0.041771 0.233843
vt 0.583376 0.233843
vt 0.010000 0.366342
vt 0.050988 0.308688
vt 0.990000 0.308688
vt 0.990000 0.366342
vt 0.010000 0.435637
vt 0.010000 0.377983
vt 0.949013 0.377983
vt 0.990000 0.435637
vt 0.949012 0.448395
vt 0.949012 0.990000
vt 0.010000 0.990000
vt 0.010000 0.448395
vn 0.648505 0.000000 0.761210
vn 0.648505 0.000000 0.761210
vn 0.648505 0.000000 0.761210
vn 0.648505 0.000000 0.761210
vn 0.551051 0.834472 0.000000
vn 0.551051 0.834472 0.000000
vn 0.551051 0.834472 0.000000
vn 0.551051 0.834472 0.000000
vn 0.551050 -0.834472 0.000000
vn 0.551050 -0.834472 0.000000
vn 0.551050 -0.834472 0.000000
vn 0.551050 -0.834472 0.000000
vn 1.000000 0.000000 0.000000
vn 1.000000 0.000000 0.000000
vn 1.000000 0.000000 0.000000
vn 1.000000 0.000000 0.000000
vn 0.648505 0.000000 -0.761210
vn 0.648505 0.000000 -0.761210
vn 0.648505 0.000000 -0.761210
vn 0.648505 0.000000 -0.761210
vn 0.551051 0.834472 0.000000
vn 0.551051 0.834472 0.000000
vn 0.551050 -0.834472 0.000000
vn 0.551050 -0.834472 0.000000
vn 1.000000 0.000000 0.000000
vn 1.000000 0.000000 0.000000
s 1
g ventilation_LP_UV_module:polySurface27
usemtl initialShadingGroup
f 3/1/1 1/2/2 4/4/3
f 4/4/3 1/2/2 2/3/4
s 2
f 3/5/5 4/6/6 8/8/7
f 8/8/7 4/6/6 7/7/8
s 3
f 6/10/9 2/11/10 5/9/11
f 5/9/11 2/11/10 1/12/12
s 4
f 6/13/13 7/14/14 2/16/15
f 2/16/15 7/14/14 4/15/16
s 5
f 11/17/17 12/20/18 9/18/19
f 9/18/19 12/20/18 10/19/20
s 2
f 11/21/21 8/24/7 12/22/22
f 12/22/22 8/24/7 7/23/8
s 3
f 9/28/23 10/27/24 5/25/11
f 5/25/11 10/27/24 6/26/9
s 4
f 6/29/13 10/32/25 7/30/14
f 7/30/14 10/32/25 12/31/26
